HIERARCHY
ROOT joint_0
{
	OFFSET 0.000000 0.000000 0.000000
	CHANNELS 6 Xposition Yposition Zposition Zrotation Yrotation Xrotation 
	JOINT joint_1
	{
		OFFSET 11.612000 -0.419000 106.198000
		CHANNELS 3 Zrotation Yrotation Xrotation
		JOINT joint_2
		{
			OFFSET -1.708000 -1.022000 97.564090
			CHANNELS 3 Zrotation Yrotation Xrotation
			JOINT joint_3
			{
				OFFSET -4.121000 -1.538000 97.375000
				CHANNELS 3 Zrotation Yrotation Xrotation
				JOINT joint_4
				{
					OFFSET 5.442000 -2.123000 132.795900
					CHANNELS 3 Zrotation Yrotation Xrotation
					JOINT joint_5
					{
						OFFSET 21.935000 0.195000 82.975100
						CHANNELS 3 Zrotation Yrotation Xrotation
						End Site
						{
							OFFSET 0.000000 0.000000 0.000000
						}
					}
				}
				JOINT joint_6
				{
					OFFSET 4.262000 -30.048000 73.899900
					CHANNELS 3 Zrotation Yrotation Xrotation
					JOINT joint_7
					{
						OFFSET 9.731000 -136.810010 -21.963010
						CHANNELS 3 Zrotation Yrotation Xrotation
						JOINT joint_8
						{
							OFFSET 33.360000 -35.709000 -267.597900
							CHANNELS 3 Zrotation Yrotation Xrotation
							JOINT joint_9
							{
								OFFSET 36.156000 -29.759000 -240.558040
								CHANNELS 3 Zrotation Yrotation Xrotation
								End Site
								{
									OFFSET 0.000000 0.000000 0.000000
								}
							}
						}
					}
				}
				JOINT joint_10
				{
					OFFSET 2.027000 27.734000 74.914920
					CHANNELS 3 Zrotation Yrotation Xrotation
					JOINT joint_11
					{
						OFFSET -5.183000 136.784000 -23.604980
						CHANNELS 3 Zrotation Yrotation Xrotation
						JOINT joint_12
						{
							OFFSET 29.806000 37.229000 -267.809940
							CHANNELS 3 Zrotation Yrotation Xrotation
							JOINT joint_13
							{
								OFFSET 36.890000 46.524990 -237.772030
								CHANNELS 3 Zrotation Yrotation Xrotation
								End Site
								{
									OFFSET 0.000000 0.000000 0.000000
								}
							}
						}
					}
				}
			}
		}
	}
	JOINT joint_14
	{
		OFFSET -7.290000 -102.873990 -124.314940
		CHANNELS 3 Zrotation Yrotation Xrotation
		JOINT joint_15
		{
			OFFSET -15.466000 -19.909010 -438.533020
			CHANNELS 3 Zrotation Yrotation Xrotation
			JOINT joint_16
			{
				OFFSET -26.899000 -18.922000 -464.797000
				CHANNELS 3 Zrotation Yrotation Xrotation
				JOINT joint_17
				{
					OFFSET 179.329000 -12.011000 -84.174000
					CHANNELS 3 Zrotation Yrotation Xrotation
					End Site
					{
						OFFSET 0.000000 0.000000 0.000000
					}
				}
			}
		}
	}
	JOINT joint_18
	{
		OFFSET -6.225000 101.546000 -125.479980
		CHANNELS 3 Zrotation Yrotation Xrotation
		JOINT joint_19
		{
			OFFSET -13.973000 7.996000 -438.963010
			CHANNELS 3 Zrotation Yrotation Xrotation
			JOINT joint_20
			{
				OFFSET -44.294000 5.716000 -463.813970
				CHANNELS 3 Zrotation Yrotation Xrotation
				JOINT joint_21
				{
					OFFSET 178.505000 -4.689000 -85.139000
					CHANNELS 3 Zrotation Yrotation Xrotation
					End Site
					{
						OFFSET 0.000000 0.000000 0.000000
					}
				}
			}
		}
	}
}
MOTION
Frames: 10
Frame Time: 0.016667
-73.472000 -13.706000 1128.185060 -6.203109 -0.815516 0.991571 0.451912 1.216283 0.653629 0.426439 -0.246756 -0.082049 0.439893 0.252575 0.033626 0.094129 0.789367 -0.362775 0.000000 0.000000 0.000000 1.678468 -0.269193 -0.000643 -0.145732 -0.048688 -1.015252 -0.258176 0.539859 -1.281403 0.000000 0.000000 0.000000 -0.154461 -0.881974 -0.147365 -0.306818 -0.974757 -1.956322 0.126875 0.311688 0.417651 0.000000 0.000000 0.000000 0.481676 0.320798 -1.304696 0.387696 1.133137 0.244296 0.530739 -2.202847 0.101249 0.000000 0.000000 0.000000 1.130259 0.460285 1.446934 1.147070 -1.714694 -0.387521 1.096060 1.465854 0.560025 0.000000 0.000000 0.000000 
-72.691000 -13.796000 1128.396970 -6.138281 -0.566445 1.014745 0.401515 1.355039 0.694668 0.372212 -0.258776 -0.127675 0.389001 0.250984 0.064525 0.089992 0.454905 -0.344062 0.000000 0.000000 0.000000 1.357409 -0.291567 -0.283531 -0.120185 -0.098796 -0.906137 -0.179942 0.293867 -0.959507 0.000000 0.000000 0.000000 -0.060466 -0.737067 0.139571 -0.340312 -0.866419 -2.042206 -0.000548 0.088331 -0.116601 0.000000 0.000000 0.000000 0.467546 0.143688 -1.328107 0.369090 1.046311 0.225326 0.508632 -2.208037 0.090525 0.000000 0.000000 0.000000 1.101761 0.264613 1.448861 1.121308 -1.816186 -0.441720 1.067882 1.538398 0.548551 0.000000 0.000000 0.000000 
-71.514000 -13.927000 1128.703980 -6.051517 -0.209189 1.044222 0.336731 1.551432 0.743900 0.301791 -0.277128 -0.190824 0.323236 0.245741 0.108598 0.082110 -0.036683 -0.309139 0.000000 0.000000 0.000000 0.864776 -0.315363 -0.705739 -0.078693 -0.163790 -0.705895 -0.066909 -0.063570 -0.500413 0.000000 0.000000 0.000000 -0.027531 -0.519640 0.551924 -0.380663 -0.682127 -2.153433 -0.182726 -0.257793 -0.859335 0.000000 0.000000 0.000000 0.450527 -0.107936 -1.359694 0.345694 0.920208 0.205610 0.480065 -2.207078 0.077181 0.000000 0.000000 0.000000 1.064332 -0.008799 1.454151 1.087570 -1.966739 -0.516404 1.030802 1.642372 0.533670 0.000000 0.000000 0.000000 
-69.733000 -14.253000 1129.052980 -6.011802 0.181918 1.063009 0.274570 1.766896 0.749514 0.234259 -0.319793 -0.220478 0.258817 0.270210 0.128414 0.078664 -0.676407 -0.287143 0.000000 0.000000 0.000000 0.549978 -0.264403 -1.027503 -0.054366 -0.132307 -0.544826 0.057981 -0.509119 -0.044260 0.000000 0.000000 0.000000 -0.115091 -0.249704 0.882420 -0.399103 -0.415352 -2.201623 -0.360909 -0.673312 -1.503041 0.000000 0.000000 0.000000 0.443386 -0.385790 -1.378732 0.329917 0.814419 0.206079 0.458620 -2.156364 0.070518 0.000000 0.000000 0.000000 1.052347 -0.277296 1.469105 1.079084 -2.115373 -0.579621 1.018860 1.746869 0.530761 0.000000 0.000000 0.000000 
-66.993000 -14.921000 1129.442990 -6.054333 0.630785 1.055510 0.213206 1.995416 0.668775 0.168817 -0.415504 -0.183984 0.193472 0.353541 0.100228 0.085673 -1.566943 -0.294139 0.000000 0.000000 0.000000 0.571281 -0.051323 -1.171227 -0.062508 0.103157 -0.450629 0.226725 -1.238205 0.448970 0.000000 0.000000 0.000000 -0.416124 0.149253 1.102616 -0.387229 0.029393 -2.173080 -0.561594 -1.307531 -2.034027 0.000000 0.000000 0.000000 0.466955 -0.652697 -1.359909 0.350117 0.637118 0.212078 0.464803 -1.992256 0.084422 0.000000 0.000000 0.000000 1.073770 -0.460543 1.516851 1.100425 -2.412623 -0.629083 1.038339 1.899089 0.544037 0.000000 0.000000 0.000000 
-63.649000 -15.784000 1129.874020 -6.144152 1.110937 1.035496 0.153513 2.247127 0.541646 0.104920 -0.531878 -0.115441 0.127951 0.458567 0.049504 0.097576 -2.607929 -0.303164 0.000000 0.000000 0.000000 0.780963 0.242546 -1.191153 -0.086651 0.438904 -0.419877 0.408801 -2.064875 0.928181 0.000000 0.000000 0.000000 -0.847548 0.603078 1.222064 -0.349151 0.562239 -2.080736 -0.756010 -2.017281 -2.452074 0.000000 0.000000 0.000000 0.499990 -0.942382 -1.328479 0.377865 0.478837 0.239190 0.477846 -1.774876 0.105106 0.000000 0.000000 0.000000 1.120928 -0.635575 1.573728 1.147151 -2.708972 -0.666268 1.083020 2.055651 0.569398 0.000000 0.000000 0.000000 
-60.563000 -16.554000 1130.297000 -6.242716 1.474642 1.031361 0.117164 2.511052 0.440824 0.062689 -0.609726 -0.067679 0.084496 0.535325 0.015387 0.105062 -3.494154 -0.288577 0.000000 0.000000 0.000000 1.070556 0.438070 -1.085500 -0.115609 0.673381 -0.488515 0.481700 -2.401100 1.109402 0.000000 0.000000 0.000000 -1.221413 0.862991 1.141950 -0.291705 0.905491 -1.906789 -0.810583 -2.282319 -2.493263 0.000000 0.000000 0.000000 0.491155 -1.314473 -1.339928 0.339267 0.671434 0.353727 0.449038 -1.651226 0.099875 0.000000 0.000000 0.000000 1.202041 -0.960573 1.574161 1.236557 -2.498695 -0.664338 1.166808 2.037432 0.608827 0.000000 0.000000 0.000000 
-58.083000 -17.096000 1130.728030 -6.359368 1.660719 1.063164 0.117154 2.754030 0.413121 0.054635 -0.615108 -0.065727 0.076656 0.564920 0.014909 0.104930 -4.163513 -0.250211 0.000000 0.000000 0.000000 1.470188 0.448071 -0.805438 -0.158975 0.714359 -0.756360 0.377147 -1.879357 0.879044 0.000000 0.000000 0.000000 -1.440601 0.767765 0.732201 -0.206977 0.891848 -1.545205 -0.625119 -1.673735 -2.000332 0.000000 0.000000 0.000000 0.408346 -1.863946 -1.439582 0.181911 1.460615 0.625258 0.341274 -1.659518 0.048772 0.000000 0.000000 0.000000 1.342331 -1.562478 1.472500 1.399875 -1.448883 -0.602458 1.316862 1.763359 0.673159 0.000000 0.000000 0.000000 
-55.862000 -17.545000 1131.151000 -6.484669 1.730255 1.106720 0.141083 3.014804 0.423032 0.068719 -0.595446 -0.087839 0.092057 0.579794 0.029117 0.100538 -4.678372 -0.202506 0.000000 0.000000 0.000000 1.954186 0.355615 -0.425089 -0.206429 0.653789 -1.102771 0.165447 -0.860313 0.363523 0.000000 0.000000 0.000000 -1.604800 0.472386 0.147952 -0.100816 0.683736 -1.100382 -0.294581 -0.608646 -1.148137 0.000000 0.000000 0.000000 0.287070 -2.496819 -1.570302 -0.038543 2.602852 0.963899 0.187547 -1.735222 -0.028409 0.000000 0.000000 0.000000 1.520470 -2.313919 1.319050 1.608496 0.101852 -0.487758 1.505266 1.360528 0.752259 0.000000 0.000000 0.000000 
-53.712000 -18.025000 1131.472050 -6.549879 1.723534 1.127582 0.170338 3.375989 0.411889 0.086572 -0.611145 -0.106012 0.111962 0.618882 0.039817 0.090355 -4.916717 -0.149957 0.000000 0.000000 0.000000 2.334000 0.233159 -0.158474 -0.221999 0.568437 -1.195287 -0.072740 0.144253 -0.361634 0.000000 0.000000 0.000000 -1.818515 0.206396 -0.237822 -0.021489 0.492765 -0.900734 0.006956 0.179292 -0.188167 0.000000 0.000000 0.000000 0.174980 -2.993542 -1.640020 -0.236462 3.696361 1.209202 0.046744 -1.893013 -0.104991 0.000000 0.000000 0.000000 1.672320 -2.998009 1.189850 1.788390 1.656487 -0.341854 1.664593 0.933918 0.816604 0.000000 0.000000 0.000000 
